<mxfile host="app.diagrams.net" modified="2023-10-26T15:18:41.380Z" agent="Mozilla/5.0 (Windows NT 10.0; Win64; x64) AppleWebKit/537.36 (KHTML, like Gecko) Chrome/118.0.0.0 Safari/537.36 Edg/118.0.2088.69" etag="Ve5kukm6xyNFoTDti-dy" version="22.0.8" type="github">
  <diagram name="Página-1" id="dEJGY9LAbtKT8eE1fh9m">
    <mxGraphModel dx="956" dy="535" grid="1" gridSize="10" guides="1" tooltips="1" connect="1" arrows="1" fold="1" page="1" pageScale="1" pageWidth="827" pageHeight="1169" math="0" shadow="0">
      <root>
        <mxCell id="0" />
        <mxCell id="1" parent="0" />
        <mxCell id="2c84H_mFhP0OiNRYd1Ep-6" value="ID" style="ellipse;whiteSpace=wrap;html=1;" parent="1" vertex="1">
          <mxGeometry x="105" y="220" width="70" height="40" as="geometry" />
        </mxCell>
        <mxCell id="2c84H_mFhP0OiNRYd1Ep-7" value="NIF" style="ellipse;whiteSpace=wrap;html=1;" parent="1" vertex="1">
          <mxGeometry x="105" y="270" width="70" height="40" as="geometry" />
        </mxCell>
        <mxCell id="2c84H_mFhP0OiNRYd1Ep-8" value="MORADA" style="ellipse;whiteSpace=wrap;html=1;" parent="1" vertex="1">
          <mxGeometry x="97" y="320" width="85" height="40" as="geometry" />
        </mxCell>
        <mxCell id="2c84H_mFhP0OiNRYd1Ep-9" value="ID" style="ellipse;whiteSpace=wrap;html=1;" parent="1" vertex="1">
          <mxGeometry x="370" y="220" width="70" height="40" as="geometry" />
        </mxCell>
        <mxCell id="2c84H_mFhP0OiNRYd1Ep-10" value="FORMA PAGAMENTO" style="ellipse;whiteSpace=wrap;html=1;" parent="1" vertex="1">
          <mxGeometry x="348.75" y="270" width="112.5" height="40" as="geometry" />
        </mxCell>
        <mxCell id="2c84H_mFhP0OiNRYd1Ep-11" value="ID" style="ellipse;whiteSpace=wrap;html=1;" parent="1" vertex="1">
          <mxGeometry x="630" y="220" width="70" height="40" as="geometry" />
        </mxCell>
        <mxCell id="2c84H_mFhP0OiNRYd1Ep-12" value="QUANTIDADE" style="ellipse;whiteSpace=wrap;html=1;" parent="1" vertex="1">
          <mxGeometry x="612.5" y="270" width="105" height="40" as="geometry" />
        </mxCell>
        <mxCell id="2c84H_mFhP0OiNRYd1Ep-25" value="" style="endArrow=none;html=1;rounded=0;" parent="1" edge="1">
          <mxGeometry width="50" height="50" relative="1" as="geometry">
            <mxPoint x="200" y="170" as="sourcePoint" />
            <mxPoint x="340" y="170" as="targetPoint" />
          </mxGeometry>
        </mxCell>
        <mxCell id="2c84H_mFhP0OiNRYd1Ep-1" value="CLIENTE" style="rounded=0;whiteSpace=wrap;html=1;" parent="1" vertex="1">
          <mxGeometry x="92.5" y="145" width="100" height="50" as="geometry" />
        </mxCell>
        <mxCell id="2c84H_mFhP0OiNRYd1Ep-37" value="N" style="text;html=1;strokeColor=none;fillColor=none;align=center;verticalAlign=middle;whiteSpace=wrap;rounded=0;" parent="1" vertex="1">
          <mxGeometry x="182" y="145" width="60" height="30" as="geometry" />
        </mxCell>
        <mxCell id="2c84H_mFhP0OiNRYd1Ep-38" value="1" style="text;html=1;strokeColor=none;fillColor=none;align=center;verticalAlign=middle;whiteSpace=wrap;rounded=0;" parent="1" vertex="1">
          <mxGeometry x="310" y="145" width="60" height="30" as="geometry" />
        </mxCell>
        <mxCell id="sN6ll9Y3iF8QySrxCl4U-2" value="&lt;div style=&quot;&quot;&gt;&lt;span style=&quot;background-color: initial;&quot;&gt;FICHA 1 EX 2.&amp;nbsp;&lt;/span&gt;&lt;/div&gt;&lt;div style=&quot;&quot;&gt;&lt;span style=&quot;background-color: initial;&quot;&gt;Uma papelaria comercializa vários produtos aos seus clientes. Para cada Cliente pretende-se guardar o nome, o&lt;/span&gt;&lt;/div&gt;nº de contribuinte, morada e telefone. Os clientes geralmente pedem várias quantidades de vários produtos na &lt;br&gt;mesma compra. É importante registar para cada compra a forma e prazo de pagamento." style="text;html=1;strokeColor=none;fillColor=none;align=left;verticalAlign=middle;whiteSpace=wrap;rounded=0;" vertex="1" parent="1">
          <mxGeometry x="47" y="60" width="780" height="30" as="geometry" />
        </mxCell>
        <mxCell id="sN6ll9Y3iF8QySrxCl4U-3" value="TELEFONE" style="ellipse;whiteSpace=wrap;html=1;" vertex="1" parent="1">
          <mxGeometry x="87.5" y="370" width="105" height="40" as="geometry" />
        </mxCell>
        <mxCell id="sN6ll9Y3iF8QySrxCl4U-4" value="PRAZO&lt;br&gt;PAGAMENTO" style="ellipse;whiteSpace=wrap;html=1;" vertex="1" parent="1">
          <mxGeometry x="348.13" y="320" width="113.75" height="40" as="geometry" />
        </mxCell>
        <mxCell id="sN6ll9Y3iF8QySrxCl4U-6" value="" style="endArrow=none;html=1;rounded=0;entryX=0.19;entryY=0.4;entryDx=0;entryDy=0;entryPerimeter=0;" edge="1" parent="1" source="2c84H_mFhP0OiNRYd1Ep-1" target="2c84H_mFhP0OiNRYd1Ep-3">
          <mxGeometry width="50" height="50" relative="1" as="geometry">
            <mxPoint x="470" y="170" as="sourcePoint" />
            <mxPoint x="605" y="169.5" as="targetPoint" />
          </mxGeometry>
        </mxCell>
        <mxCell id="sN6ll9Y3iF8QySrxCl4U-5" value="contém" style="rhombus;whiteSpace=wrap;html=1;" vertex="1" parent="1">
          <mxGeometry x="487.5" y="135" width="100" height="70" as="geometry" />
        </mxCell>
        <mxCell id="sN6ll9Y3iF8QySrxCl4U-9" value="1" style="text;html=1;strokeColor=none;fillColor=none;align=center;verticalAlign=middle;whiteSpace=wrap;rounded=0;" vertex="1" parent="1">
          <mxGeometry x="440" y="145" width="60" height="30" as="geometry" />
        </mxCell>
        <mxCell id="sN6ll9Y3iF8QySrxCl4U-10" value="N" style="text;html=1;strokeColor=none;fillColor=none;align=center;verticalAlign=middle;whiteSpace=wrap;rounded=0;" vertex="1" parent="1">
          <mxGeometry x="570" y="145" width="60" height="30" as="geometry" />
        </mxCell>
        <mxCell id="2c84H_mFhP0OiNRYd1Ep-3" value="PRODUTO" style="rounded=0;whiteSpace=wrap;html=1;" parent="1" vertex="1">
          <mxGeometry x="620" y="150" width="105" height="50" as="geometry" />
        </mxCell>
        <mxCell id="2c84H_mFhP0OiNRYd1Ep-2" value="COMPRA" style="rounded=0;whiteSpace=wrap;html=1;" parent="1" vertex="1">
          <mxGeometry x="362.5" y="145" width="85" height="50" as="geometry" />
        </mxCell>
        <mxCell id="2c84H_mFhP0OiNRYd1Ep-26" value="efectua" style="rhombus;whiteSpace=wrap;html=1;" parent="1" vertex="1">
          <mxGeometry x="230" y="135" width="100" height="70" as="geometry" />
        </mxCell>
      </root>
    </mxGraphModel>
  </diagram>
</mxfile>
